# xmcd
#
# Track frame offsets: 
#        150
#        18985
#        37791
#        54706
#        68784
#        84124
#        102889
#        122629
#        139338
#        154617
#        173043
#        187139
#
# Disc length: 2758 seconds
#
# Revision: 0
# Processed by: cddbd v1.5.2PL0 Copyright (c) Steve Scherf et al.
# Submitted via: ExactAudioCopy v1.3
#
DISCID=950ac40c
DTITLE=Meg Williams - Take Me as I Am The Muscle Shoals Sessions
DYEAR=2019
DGENRE=Contemporary Blues
TTITLE0=Come On Over To Me
TTITLE1=Tell Everybody
TTITLE2=Shame
TTITLE3=Little Bit Of The Devil
TTITLE4=Played By The Blues
TTITLE5=Sometimes I Need You Too
TTITLE6=Take Me As I Am
TTITLE7=What About Me
TTITLE8=Can't Keep Waiting On You
TTITLE9=I Feel A Heartache Coming
TTITLE10=Make A Move
TTITLE11=Take A Chance On My Love
EXTD=
EXTT0=
EXTT1=
EXTT2=
EXTT3=
EXTT4=
EXTT5=
EXTT6=
EXTT7=
EXTT8=
EXTT9=
EXTT10=
EXTT11=
PLAYORDER=
